<svg width="17" height="14" viewBox="0 0 17 14" fill="none" xmlns="http://www.w3.org/2000/svg">
<path d="M16.0963 0.572279C16.1748 0.206755 15.8164 -0.10145 15.4669 0.0319367L0.303581 5.82041C0.121087 5.8901 0.000378397 6.06501 8.88017e-07 6.26034C-0.000376621 6.4557 0.11964 6.63108 0.301883 6.70146L4.56154 8.34661V13.5283C4.56154 13.7469 4.71163 13.9369 4.9243 13.9874C5.13554 14.0377 5.35582 13.9372 5.45485 13.7407L7.2166 10.2447L11.5159 13.4354C11.7774 13.6295 12.1533 13.506 12.2485 13.1941C16.2627 0.0329752 16.0891 0.605342 16.0963 0.572279ZM12.3532 2.23074L4.96654 7.4913L1.78829 6.26383L12.3532 2.23074ZM5.50531 8.26624L11.944 3.68085C6.4036 9.52564 6.69296 9.218 6.6688 9.25053C6.6329 9.29882 6.73124 9.1106 5.50531 11.5433V8.26624ZM11.541 12.2787L7.75659 9.47018L14.5993 2.2515L11.541 12.2787Z" fill="white"/>
</svg>
